<?xml version="1.0" standalone="no"?><!DOCTYPE svg PUBLIC "-//W3C//DTD SVG 1.1//EN" "http://www.w3.org/Graphics/SVG/1.1/DTD/svg11.dtd"><svg t="1654526487910" class="icon" viewBox="0 0 1024 1024" version="1.1" xmlns="http://www.w3.org/2000/svg" p-id="2967" xmlns:xlink="http://www.w3.org/1999/xlink" width="200" height="200"><defs><style type="text/css">@font-face { font-family: feedback-iconfont; src: url("//at.alicdn.com/t/font_1031158_u69w8yhxdu.woff2?t=1630033759944") format("woff2"), url("//at.alicdn.com/t/font_1031158_u69w8yhxdu.woff?t=1630033759944") format("woff"), url("//at.alicdn.com/t/font_1031158_u69w8yhxdu.ttf?t=1630033759944") format("truetype"); }
</style></defs><path d="M689.4 268.8l-3.3-81.6c15.6-0.6 31.3-39.3 31.3-124.2H799c0.1 133.6-36.8 202.9-109.6 205.8zM348.4 268.8c-72.7-2.9-109.6-72.2-109.6-205.8h81.6c0 84.9 15.7 123.6 31.3 124.2l-3.3 81.6z" fill="#7BF2FC" p-id="2968"></path><path d="M205.1 346.2h-40.8c-56.3 0-102-45.8-102-102s45.8-102 102-102h40.8c56.3 0 102 45.8 102 102s-45.7 102-102 102z m-40.8-122.5c-11.3 0-20.4 9.1-20.4 20.4s9.1 20.4 20.4 20.4h40.8c11.3 0 20.4-9.1 20.4-20.4s-9.1-20.4-20.4-20.4h-40.8zM858.2 346.2h-40.8c-56.3 0-102-45.8-102-102s45.8-102 102-102h40.8c56.3 0 102 45.8 102 102s-45.7 102-102 102z m-40.8-122.5c-11.3 0-20.4 9.1-20.4 20.4s9.1 20.4 20.4 20.4h40.8c11.3 0 20.4-9.1 20.4-20.4s-9.1-20.4-20.4-20.4h-40.8z" fill="#7BF2FC" p-id="2969"></path><path d="M552.1 631.9h-81.6c-22.5 0-40.8 18.3-40.8 40.8 0 22.5 18.3 40.8 40.8 40.8v40.8c0 22.5 18.3 40.8 40.8 40.8 22.5 0 40.8-18.3 40.8-40.8v-40.8c22.5 0 40.8-18.3 40.8-40.8 0-22.5-18.3-40.8-40.8-40.8z" fill="#7EDBFE" p-id="2970"></path><path d="M511.2 958.5C286.1 958.5 103 775.4 103 550.3s183.1-408.2 408.2-408.2 408.2 183.1 408.2 408.2-183.1 408.2-408.2 408.2z m0-734.8c-180.1 0-326.5 146.5-326.5 326.5s146.5 326.5 326.5 326.5 326.5-146.5 326.5-326.5-146.4-326.5-326.5-326.5z" fill="#66B2F6" p-id="2971"></path><path d="M348 509.4m-40.8 0a40.8 40.8 0 1 0 81.6 0 40.8 40.8 0 1 0-81.6 0Z" fill="#7EDBFE" p-id="2972"></path><path d="M674.5 509.4m-40.8 0a40.8 40.8 0 1 0 81.6 0 40.8 40.8 0 1 0-81.6 0Z" fill="#7EDBFE" p-id="2973"></path></svg>